<svg width="33" height="33" viewBox="0 0 33 33" fill="none" xmlns="http://www.w3.org/2000/svg">
<path d="M16.4058 11.9092V8.90918" stroke="#143151" stroke-linecap="round" stroke-linejoin="round"/>
<path d="M16.4059 8.90918C22.1837 6.90918 16.4059 1.90918 16.4059 1.90918C16.4059 1.90918 10.4059 6.90918 16.4059 8.90918Z" stroke="#143151" stroke-linecap="round" stroke-linejoin="round"/>
<path d="M20.6558 16.6592C20.6558 17.7863 20.208 18.8674 19.411 19.6644C18.6139 20.4614 17.5329 20.9092 16.4058 20.9092C15.2786 20.9092 14.1976 20.4614 13.4006 19.6644C12.6035 18.8674 12.1558 17.7863 12.1558 16.6592" stroke="#143151" stroke-linecap="round" stroke-linejoin="round"/>
<path d="M12.1558 16.6592C12.1558 17.772 11.7193 18.8404 10.9401 19.6349C10.161 20.4295 9.10124 20.8867 7.98864 20.9084C5.606 20.954 3.65576 18.9583 3.65576 16.5752V14.9092C3.65576 14.1135 3.97183 13.3505 4.53444 12.7879C5.09705 12.2252 5.86011 11.9092 6.65576 11.9092H26.1558C26.9514 11.9092 27.7145 12.2252 28.2771 12.7879C28.8397 13.3505 29.1558 14.1135 29.1558 14.9092V16.5752C29.1558 18.9583 27.2055 20.954 24.8229 20.9084C23.7103 20.8867 22.6506 20.4295 21.8714 19.6349C21.0922 18.8404 20.6558 17.772 20.6558 16.6592" stroke="#143151" stroke-linecap="round" stroke-linejoin="round"/>
<path d="M27.4058 20.0679V26.9092C27.4058 27.1744 27.3004 27.4288 27.1129 27.6163C26.9253 27.8038 26.671 27.9092 26.4058 27.9092H6.40576C6.14055 27.9092 5.88619 27.8038 5.69866 27.6163C5.51112 27.4288 5.40576 27.1744 5.40576 26.9092V20.0679" stroke="#143151" stroke-linecap="round" stroke-linejoin="round"/>
</svg>
