<svg width="33" height="33" viewBox="0 0 33 33" fill="none" xmlns="http://www.w3.org/2000/svg">
<path d="M16.064 3.78769C12.7028 3.78775 9.47222 5.08965 7.05021 7.42021C4.6282 9.75077 3.20298 12.9288 3.07361 16.2875C2.94424 19.6463 4.12077 22.9245 6.35634 25.4345C8.5919 27.9445 11.7127 29.491 15.064 29.7496V19.7878H12.064C11.7987 19.7878 11.5444 19.6824 11.3569 19.4949C11.1693 19.3074 11.064 19.053 11.064 18.7878C11.064 18.5226 11.1693 18.2682 11.3569 18.0807C11.5444 17.8932 11.7987 17.7878 12.064 17.7878H15.064V14.7878C15.0652 13.7273 15.487 12.7106 16.2369 11.9607C16.9868 11.2108 18.0035 10.789 19.064 10.7878H21.064C21.3292 10.7878 21.5835 10.8932 21.7711 11.0807C21.9586 11.2682 22.064 11.5226 22.064 11.7878C22.064 12.053 21.9586 12.3074 21.7711 12.4949C21.5835 12.6824 21.3292 12.7878 21.064 12.7878H19.064C18.5337 12.7884 18.0254 12.9993 17.6504 13.3743C17.2755 13.7492 17.0646 14.2576 17.064 14.7878V17.7878H20.064C20.3292 17.7878 20.5835 17.8932 20.7711 18.0807C20.9586 18.2682 21.064 18.5226 21.064 18.7878C21.064 19.053 20.9586 19.3074 20.7711 19.4949C20.5835 19.6824 20.3292 19.7878 20.064 19.7878H17.064V29.7496C20.4152 29.491 23.536 27.9444 25.7716 25.4345C28.0071 22.9245 29.1836 19.6462 29.0543 16.2875C28.9249 12.9288 27.4997 9.75079 25.0777 7.42023C22.6557 5.08967 19.4252 3.78776 16.064 3.78769V3.78769Z" fill="#143151"/>
</svg>
