<svg width="33" height="33" viewBox="0 0 33 33" fill="none" xmlns="http://www.w3.org/2000/svg">
<path d="M16.0623 20.3808C18.2714 20.3808 20.0623 18.5899 20.0623 16.3808C20.0623 14.1716 18.2714 12.3808 16.0623 12.3808C13.8531 12.3808 12.0623 14.1716 12.0623 16.3808C12.0623 18.5899 13.8531 20.3808 16.0623 20.3808Z" fill="#143151"/>
<path d="M21.5623 3.88077H10.5623C8.70639 3.88287 6.92713 4.62104 5.61483 5.93334C4.30253 7.24564 3.56436 9.0249 3.56226 10.8808V21.8808C3.56436 23.7366 4.30253 25.5159 5.61483 26.8282C6.92713 28.1405 8.70639 28.8787 10.5623 28.8808H21.5623C23.4181 28.8787 25.1974 28.1405 26.5097 26.8282C27.822 25.5159 28.5602 23.7366 28.5623 21.8808V10.8808C28.5602 9.0249 27.822 7.24564 26.5097 5.93334C25.1974 4.62104 23.4181 3.88287 21.5623 3.88077V3.88077ZM16.0623 22.3808C14.8756 22.3808 13.7155 22.0289 12.7288 21.3696C11.7421 20.7103 10.9731 19.7732 10.519 18.6769C10.0649 17.5805 9.94603 16.3741 10.1775 15.2102C10.4091 14.0463 10.9805 12.9772 11.8196 12.1381C12.6587 11.299 13.7278 10.7276 14.8917 10.4961C16.0556 10.2645 17.262 10.3834 18.3584 10.8375C19.4547 11.2916 20.3918 12.0607 21.0511 13.0473C21.7104 14.034 22.0623 15.1941 22.0623 16.3808C22.0605 17.9715 21.4277 19.4966 20.3029 20.6214C19.1781 21.7463 17.653 22.379 16.0623 22.3808V22.3808ZM22.5623 11.3808C22.2656 11.3808 21.9756 11.2928 21.7289 11.128C21.4822 10.9632 21.29 10.7289 21.1764 10.4548C21.0629 10.1807 21.0332 9.8791 21.0911 9.58813C21.149 9.29716 21.2918 9.02989 21.5016 8.82011C21.7114 8.61033 21.9786 8.46747 22.2696 8.40959C22.5606 8.35171 22.8622 8.38142 23.1363 8.49495C23.4104 8.60848 23.6446 8.80074 23.8095 9.04741C23.9743 9.29409 24.0623 9.5841 24.0623 9.88077C24.0623 10.2786 23.9042 10.6601 23.6229 10.9414C23.3416 11.2227 22.9601 11.3808 22.5623 11.3808Z" fill="#143151"/>
</svg>
