<svg width="56" height="56" viewBox="0 0 56 56" fill="none" xmlns="http://www.w3.org/2000/svg">
<path d="M28 28.5C30.7614 28.5 33 26.2614 33 23.5C33 20.7386 30.7614 18.5 28 18.5C25.2386 18.5 23 20.7386 23 23.5C23 26.2614 25.2386 28.5 28 28.5Z" stroke="#FFCC00" stroke-linecap="round" stroke-linejoin="round"/>
<path d="M36.5 20.5C37.6645 20.499 38.8131 20.7696 39.8547 21.2903C40.8963 21.811 41.8021 22.5674 42.5001 23.4995" stroke="#FFCC00" stroke-linecap="round" stroke-linejoin="round"/>
<path d="M13.4995 23.4997C14.1976 22.5676 15.1034 21.8111 16.145 21.2904C17.1866 20.7697 18.3353 20.499 19.4999 20.5" stroke="#FFCC00" stroke-linecap="round" stroke-linejoin="round"/>
<path d="M20.8042 32.9999C21.4611 31.6506 22.4841 30.5133 23.7565 29.7176C25.0288 28.9219 26.4992 28.5 27.9999 28.5C29.5005 28.5 30.971 28.9219 32.2433 29.7176C33.5157 30.5132 34.5387 31.6506 35.1956 32.9998" stroke="#FFCC00" stroke-linecap="round" stroke-linejoin="round"/>
<path d="M19.5002 20.5C18.7413 20.4999 17.998 20.2838 17.3573 19.8771C16.7165 19.4703 16.2047 18.8897 15.8816 18.2029C15.5585 17.5162 15.4374 16.7517 15.5325 15.9987C15.6276 15.2458 15.935 14.5354 16.4187 13.9506C16.9024 13.3657 17.5425 12.9306 18.2643 12.696C18.9861 12.4613 19.7597 12.4369 20.4949 12.6254C21.23 12.814 21.8964 13.2079 22.4161 13.761C22.9358 14.3141 23.2874 15.0036 23.4299 15.7491" stroke="#FFCC00" stroke-linecap="round" stroke-linejoin="round"/>
<path d="M32.5703 15.7491C32.7127 15.0035 33.0643 14.3138 33.584 13.7606C34.1038 13.2074 34.7702 12.8134 35.5054 12.6248C36.2406 12.4361 37.0144 12.4606 37.7362 12.6952C38.4581 12.9299 39.0983 13.365 39.5821 13.9499C40.0659 14.5348 40.3733 15.2453 40.4684 15.9984C40.5635 16.7515 40.4424 17.516 40.1192 18.2029C39.796 18.8897 39.2841 19.4704 38.6432 19.8771C38.0024 20.2839 37.259 20.4999 36.4999 20.4999" stroke="#FFCC00" stroke-linecap="round" stroke-linejoin="round"/>
<path d="M28.0281 43.683L30.3242 45.1376C30.6177 45.3236 30.9821 45.047 30.895 44.7044L30.2316 42.0949C30.2129 42.0222 30.2151 41.9457 30.238 41.8742C30.2608 41.8027 30.3034 41.7392 30.3608 41.6908L32.4197 39.9771C32.6903 39.7519 32.5506 39.3029 32.2031 39.2804L29.5142 39.1059C29.4418 39.1007 29.3723 39.075 29.3139 39.0319C29.2555 38.9888 29.2105 38.93 29.1842 38.8623L28.1814 36.3369C28.1542 36.2651 28.1057 36.2032 28.0424 36.1596C27.9792 36.1159 27.9042 36.0925 27.8273 36.0925C27.7505 36.0925 27.6755 36.1159 27.6122 36.1596C27.549 36.2032 27.5005 36.2651 27.4732 36.3369L26.4704 38.8623C26.4441 38.93 26.3992 38.9888 26.3408 39.0319C26.2823 39.075 26.2129 39.1007 26.1405 39.1059L23.4516 39.2804C23.104 39.3029 22.9644 39.7519 23.2349 39.9771L25.2939 41.6908C25.3513 41.7392 25.3938 41.8027 25.4167 41.8742C25.4395 41.9457 25.4417 42.0222 25.4231 42.0949L24.8078 44.515C24.7033 44.9261 25.1406 45.2579 25.4928 45.0348L27.6265 43.683C27.6865 43.6448 27.7562 43.6245 27.8273 43.6245C27.8985 43.6245 27.9681 43.6448 28.0281 43.683V43.683Z" stroke="#FFCC00" stroke-linecap="round" stroke-linejoin="round"/>
<path d="M15.6206 39.2151L16.9997 40.0888C17.176 40.2005 17.3949 40.0344 17.3426 39.8286L16.9441 38.2612C16.9329 38.2176 16.9342 38.1716 16.9479 38.1287C16.9617 38.0858 16.9872 38.0476 17.0217 38.0185L18.2584 36.9892C18.4209 36.854 18.337 36.5843 18.1282 36.5707L16.5132 36.4659C16.4697 36.4628 16.428 36.4474 16.3929 36.4215C16.3578 36.3956 16.3308 36.3603 16.315 36.3196L15.7127 34.8028C15.6963 34.7596 15.6672 34.7225 15.6292 34.6963C15.5912 34.67 15.5462 34.656 15.5 34.656C15.4538 34.656 15.4088 34.67 15.3708 34.6963C15.3328 34.7225 15.3037 34.7596 15.2873 34.8028L14.685 36.3196C14.6692 36.3603 14.6422 36.3956 14.6071 36.4215C14.572 36.4474 14.5303 36.4628 14.4868 36.4659L12.8718 36.5707C12.663 36.5843 12.5791 36.854 12.7416 36.9892L13.9783 38.0185C14.0128 38.0476 14.0383 38.0858 14.0521 38.1287C14.0658 38.1716 14.0671 38.2176 14.0559 38.2612L13.6864 39.7148C13.6236 39.9618 13.8863 40.1611 14.0978 40.0271L15.3794 39.2151C15.4154 39.1922 15.4573 39.18 15.5 39.18C15.5427 39.18 15.5846 39.1922 15.6206 39.2151V39.2151Z" stroke="#FFCC00" stroke-width="0.8" stroke-linecap="round" stroke-linejoin="round"/>
<path d="M40.2749 39.2151L41.654 40.0888C41.8303 40.2005 42.0492 40.0344 41.9968 39.8286L41.5984 38.2612C41.5872 38.2176 41.5885 38.1716 41.6022 38.1287C41.616 38.0858 41.6415 38.0476 41.676 38.0185L42.9127 36.9892C43.0752 36.854 42.9913 36.5843 42.7825 36.5707L41.1675 36.4659C41.124 36.4628 41.0823 36.4474 41.0472 36.4215C41.0121 36.3956 40.9851 36.3603 40.9693 36.3196L40.367 34.8028C40.3506 34.7596 40.3215 34.7225 40.2835 34.6963C40.2455 34.67 40.2005 34.656 40.1543 34.656C40.1081 34.656 40.0631 34.67 40.0251 34.6963C39.9871 34.7225 39.958 34.7596 39.9416 34.8028L39.3393 36.3196C39.3235 36.3603 39.2965 36.3956 39.2614 36.4215C39.2263 36.4474 39.1846 36.4628 39.1411 36.4659L37.5261 36.5707C37.3173 36.5843 37.2334 36.854 37.3959 36.9892L38.6326 38.0185C38.6671 38.0476 38.6926 38.0858 38.7064 38.1287C38.7201 38.1716 38.7214 38.2176 38.7102 38.2612L38.3407 39.7148C38.2779 39.9618 38.5405 40.1611 38.7521 40.0271L40.0337 39.2151C40.0697 39.1922 40.1116 39.18 40.1543 39.18C40.197 39.18 40.2389 39.1922 40.2749 39.2151V39.2151Z" stroke="#FFCC00" stroke-width="0.8" stroke-linecap="round" stroke-linejoin="round"/>
<circle cx="28" cy="28" r="27.5" stroke="#FFCC00"/>
</svg>
