<svg width="56" height="56" viewBox="0 0 56 56" fill="none" xmlns="http://www.w3.org/2000/svg">
<path d="M21.4888 38.9804C24.7915 38.7105 27.25 35.8143 26.9801 32.5116C26.7102 29.2089 23.814 26.7504 20.5113 27.0203C17.2086 27.2902 14.7501 30.1864 15.02 33.4891C15.2899 36.7918 18.1861 39.2503 21.4888 38.9804Z" stroke="#37D1F7" stroke-linecap="round" stroke-linejoin="round"/>
<path d="M29.165 26.3943C29.4951 26.803 29.7941 27.236 30.0594 27.6895L33.4385 29.2197C33.9801 30.9959 34.1344 32.8675 33.8911 34.7083L30.8035 36.7681C30.6146 37.2584 30.3892 37.7338 30.129 38.1903L30.4934 41.8818C29.226 43.2389 27.6823 44.3083 25.9664 45.018L22.6388 43.374C22.1198 43.4556 21.5953 43.498 21.0699 43.501L18.0551 45.6623C16.2462 45.2432 14.5482 44.441 13.0756 43.3099L12.8356 39.6061C12.5054 39.1974 12.2064 38.7645 11.9412 38.3109L8.562 36.7807C8.02049 35.0045 7.86617 33.1329 8.10945 31.2921L11.197 29.2323C11.3859 28.742 11.6114 28.2666 11.8715 27.8101L11.5072 24.1186C12.7746 22.7616 14.3183 21.6921 16.0341 20.9824L19.3617 22.6264C19.8808 22.5448 20.4052 22.5024 20.9306 22.4994L23.9454 20.3381C25.7544 20.7572 27.4524 21.5594 28.925 22.6905L29.165 26.3943Z" stroke="#37D1F7" stroke-linecap="round" stroke-linejoin="round"/>
<path d="M37 22.7502C39.0711 22.7502 40.75 21.0713 40.75 19.0002C40.75 16.9292 39.0711 15.2502 37 15.2502C34.9289 15.2502 33.25 16.9292 33.25 19.0002C33.25 21.0713 34.9289 22.7502 37 22.7502Z" stroke="#37D1F7" stroke-linecap="round" stroke-linejoin="round"/>
<path d="M42.4227 15.3009C42.6075 15.5723 42.7717 15.8572 42.9139 16.1533L44.9409 17.2785C45.1878 18.4125 45.1887 19.5862 44.9434 20.7205L42.9152 21.8464C42.7726 22.1422 42.608 22.4269 42.4227 22.698L42.4617 25.0161C41.6031 25.7969 40.5871 26.3845 39.4821 26.7393L37.4929 25.5457C37.1655 25.5701 36.8366 25.5699 36.5092 25.545L34.5211 26.7378C33.4157 26.3847 32.3988 25.7985 31.539 25.019L31.5781 22.6996C31.3932 22.4282 31.229 22.1432 31.0869 21.8472L29.0598 20.722C28.8129 19.588 28.8121 18.4143 29.0573 17.28L31.0855 16.1541C31.2281 15.8583 31.3928 15.5736 31.5781 15.3025L31.5391 12.9844C32.3976 12.2036 33.4137 11.616 34.5187 11.2612L36.5078 12.4547C36.8353 12.4304 37.1641 12.4306 37.4916 12.4555L39.4796 11.2627C40.5851 11.6158 41.602 12.202 42.4617 12.9815L42.4227 15.3009Z" stroke="#37D1F7" stroke-linecap="round" stroke-linejoin="round"/>
<circle cx="28" cy="28" r="27.5" stroke="#37D1F7"/>
</svg>
