<svg width="33" height="32" viewBox="0 0 33 32" fill="none" xmlns="http://www.w3.org/2000/svg">
<path d="M16.021 22C21.5438 22 26.021 17.5228 26.021 12C26.021 6.47715 21.5438 2 16.021 2C10.4981 2 6.021 6.47715 6.021 12C6.021 17.5228 10.4981 22 16.021 22Z" stroke="#143151" stroke-linecap="round" stroke-linejoin="round"/>
<path d="M16.021 18C19.3347 18 22.021 15.3137 22.021 12C22.021 8.68629 19.3347 6 16.021 6C12.7073 6 10.021 8.68629 10.021 12C10.021 15.3137 12.7073 18 16.021 18Z" stroke="#143151" stroke-linecap="round" stroke-linejoin="round"/>
<path d="M22.0215 19.9995V30.0001L16.0206 27.0001L10.0215 30.0001V20.0004" stroke="#143151" stroke-linecap="round" stroke-linejoin="round"/>
</svg>
