<svg width="33" height="33" viewBox="0 0 33 33" fill="none" xmlns="http://www.w3.org/2000/svg">
<path d="M26.3491 4.77424L3.05813 11.3435C2.86219 11.3988 2.68778 11.5125 2.55822 11.6696C2.42866 11.8266 2.35012 12.0194 2.33309 12.2223C2.31607 12.4252 2.36137 12.6284 2.46294 12.8049C2.56451 12.9813 2.71752 13.1225 2.9015 13.2097L13.6029 18.2787C13.8116 18.3776 13.9796 18.5457 14.0785 18.7544L19.1476 29.4557C19.2347 29.6397 19.376 29.7927 19.5524 29.8943C19.7288 29.9959 19.9321 30.0412 20.1349 30.0242C20.3378 30.0071 20.5307 29.9286 20.6877 29.799C20.8447 29.6695 20.9585 29.4951 21.0138 29.2991L27.583 6.00815C27.6313 5.83707 27.633 5.65621 27.5882 5.48421C27.5433 5.31221 27.4534 5.15528 27.3277 5.02959C27.202 4.90389 27.045 4.81397 26.873 4.76909C26.701 4.72421 26.5202 4.72599 26.3491 4.77424Z" stroke="#FBFEFF" stroke-width="2" stroke-linecap="round" stroke-linejoin="round"/>
<path d="M13.9258 18.4316L19.5826 12.7748" stroke="#FBFEFF" stroke-width="2" stroke-linecap="round" stroke-linejoin="round"/>
</svg>
