<svg width="74" height="74" viewBox="0 0 74 74" fill="none" xmlns="http://www.w3.org/2000/svg">
<circle cx="37" cy="37" r="37" fill="#F1FBFE"/>
<path d="M49.5185 36.1468L31.5215 25.1482C31.3699 25.0556 31.1963 25.005 31.0187 25.0016C30.8411 24.9983 30.6658 25.0424 30.5108 25.1293C30.3559 25.2162 30.2269 25.3428 30.1371 25.4961C30.0473 25.6494 30 25.8238 30 26.0015V47.9986C30 48.1763 30.0473 48.3507 30.1371 48.504C30.2269 48.6573 30.3559 48.7839 30.5108 48.8708C30.6658 48.9577 30.8411 49.0018 31.0187 48.9984C31.1963 48.9951 31.3699 48.9445 31.5215 48.8519L49.5185 37.8533C49.6647 37.764 49.7855 37.6386 49.8693 37.4892C49.9531 37.3398 49.9971 37.1713 49.9971 37C49.9971 36.8287 49.9531 36.6603 49.8693 36.5109C49.7855 36.3615 49.6647 36.2361 49.5185 36.1468Z" stroke="#143151" stroke-width="2" stroke-linecap="round" stroke-linejoin="round"/>
</svg>
