<svg width="74" height="74" viewBox="0 0 74 74" fill="none" xmlns="http://www.w3.org/2000/svg">
<circle cx="37" cy="37" r="37" fill="#37D1F7"/>
<path d="M48.7465 40.8033L42.8917 38.2942C42.586 38.1626 42.2523 38.1096 41.9209 38.1401C41.5895 38.1705 41.271 38.2834 40.9944 38.4685L37.864 40.5552C35.9508 39.6247 34.4023 38.083 33.4634 36.174L33.4636 36.1737L35.543 32.9965C35.724 32.7206 35.8338 32.4042 35.8626 32.0756C35.8914 31.7469 35.8383 31.4163 35.708 31.1132L33.1965 25.2534C33.0256 24.8557 32.7304 24.524 32.3551 24.308C31.9799 24.0921 31.5448 24.0035 31.115 24.0555C29.4261 24.2727 27.874 25.0973 26.7486 26.3753C25.6233 27.6532 25.0017 29.2972 25 31C25 40.9253 33.0747 49 43 49C44.7028 48.9983 46.3468 48.3767 47.6248 47.2513C48.9028 46.126 49.7273 44.5738 49.9445 42.8849C49.9964 42.4551 49.9077 42.02 49.6917 41.6448C49.4758 41.2696 49.1442 40.9744 48.7465 40.8033V40.8033Z" fill="#E3F9FF"/>
</svg>
