<svg width="33" height="33" viewBox="0 0 33 33" fill="none" xmlns="http://www.w3.org/2000/svg">
<path d="M30.8998 10.1208L27.1293 13.8914C26.3765 22.6265 19.01 29.4137 10.1927 29.4137C8.37714 29.4137 6.88093 29.1259 5.74549 28.5582C4.82917 28.1 4.4538 27.6083 4.36066 27.4684C4.2771 27.3431 4.22294 27.2005 4.20222 27.0513C4.18149 26.9021 4.19474 26.7501 4.24098 26.6068C4.28722 26.4634 4.36525 26.3323 4.46925 26.2234C4.57324 26.1144 4.70051 26.0303 4.84156 25.9774C4.87372 25.9653 7.82258 24.8327 9.72846 22.6763C8.54299 21.8322 7.49964 20.8045 6.63764 19.6319C4.92414 17.3065 3.11189 13.2681 4.20881 7.23485C4.24146 7.0553 4.32262 6.8881 4.44349 6.75138C4.56437 6.61466 4.72035 6.51362 4.89455 6.45921C5.06874 6.4048 5.2545 6.39909 5.43171 6.44271C5.60892 6.48633 5.77081 6.5776 5.89985 6.70665C5.94391 6.75059 10.1051 10.853 15.192 12.1781L15.1927 11.4133C15.2035 9.81217 15.8495 8.28088 16.9889 7.15595C18.1282 6.03103 19.6677 5.40453 21.2687 5.41417C22.3089 5.42858 23.3275 5.71251 24.225 6.23824C25.1226 6.76397 25.8685 7.51353 26.3898 8.41368L30.1927 8.41374C30.3905 8.41374 30.5838 8.47239 30.7483 8.58227C30.9127 8.69215 31.0409 8.84832 31.1166 9.03104C31.1923 9.21377 31.2121 9.41483 31.1735 9.60881C31.1349 9.80279 31.0397 9.98098 30.8998 10.1208Z" fill="#143151"/>
</svg>
