<svg width="32" height="33" viewBox="0 0 32 33" fill="none" xmlns="http://www.w3.org/2000/svg">
<path d="M16 22.8218C18.7614 22.8218 21 20.5832 21 17.8218C21 15.0604 18.7614 12.8218 16 12.8218C13.2386 12.8218 11 15.0604 11 17.8218C11 20.5832 13.2386 22.8218 16 22.8218Z" stroke="#143151" stroke-linecap="round" stroke-linejoin="round"/>
<path d="M24.5 14.8218C25.6645 14.8208 26.8131 15.0914 27.8547 15.6121C28.8963 16.1328 29.8021 16.8892 30.5001 17.8212" stroke="#143151" stroke-linecap="round" stroke-linejoin="round"/>
<path d="M1.49951 17.8215C2.19756 16.8894 3.10338 16.1329 4.145 15.6122C5.18662 15.0914 6.33533 14.8208 7.49987 14.8218" stroke="#143151" stroke-linecap="round" stroke-linejoin="round"/>
<path d="M8.8042 27.3217C9.4611 25.9724 10.4841 24.8351 11.7565 24.0394C13.0288 23.2437 14.4992 22.8218 15.9999 22.8218C17.5005 22.8218 18.971 23.2437 20.2433 24.0394C21.5157 24.835 22.5387 25.9724 23.1956 27.3216" stroke="#143151" stroke-linecap="round" stroke-linejoin="round"/>
<path d="M7.50023 14.8218C6.74128 14.8216 5.99803 14.6056 5.35727 14.1988C4.71652 13.7921 4.2047 13.2115 3.88159 12.5247C3.55847 11.838 3.4374 11.0735 3.53251 10.3205C3.62762 9.56755 3.93498 8.85718 4.4187 8.27235C4.90243 7.68753 5.54255 7.25239 6.26432 7.01774C6.98609 6.7831 7.75972 6.75864 8.49487 6.94722C9.23002 7.1358 9.89635 7.52963 10.4161 8.08273C10.9358 8.63584 11.2874 9.32537 11.4299 10.0708" stroke="#143151" stroke-linecap="round" stroke-linejoin="round"/>
<path d="M20.5703 10.0711C20.7127 9.32551 21.0643 8.63584 21.584 8.08262C22.1038 7.5294 22.7702 7.13546 23.5054 6.94681C24.2406 6.75816 25.0144 6.78258 25.7362 7.01723C26.4581 7.25187 27.0983 7.68706 27.5821 8.27196C28.0659 8.85686 28.3733 9.56733 28.4684 10.3204C28.5635 11.0735 28.4424 11.8381 28.1192 12.5249C27.796 13.2117 27.2841 13.7924 26.6432 14.1991C26.0024 14.6059 25.259 14.8219 24.4999 14.822" stroke="#143151" stroke-linecap="round" stroke-linejoin="round"/>
</svg>
