<svg width="33" height="33" viewBox="0 0 33 33" fill="none" xmlns="http://www.w3.org/2000/svg">
<path d="M29.7047 9.35755C29.5861 8.89762 29.3598 8.47247 29.0446 8.1172C28.7293 7.76193 28.3341 7.48672 27.8915 7.31428C23.6078 5.66816 16.7858 5.68189 16.4133 5.68385C16.0411 5.68086 9.21893 5.6681 4.93518 7.31428C4.49263 7.48671 4.09742 7.7619 3.78217 8.11715C3.46692 8.4724 3.24067 8.89752 3.12207 9.35743C2.79871 10.5988 2.41333 12.8686 2.41333 16.6329C2.41333 20.3971 2.79871 22.6669 3.12201 23.9082C3.24058 24.3681 3.46683 24.7933 3.78208 25.1486C4.09734 25.5038 4.49255 25.779 4.93512 25.9515C9.03589 27.5274 15.4628 27.5822 16.331 27.5822C16.4086 27.5822 16.4181 27.5822 16.4957 27.5822C17.3645 27.5821 23.791 27.5272 27.8915 25.9515C28.334 25.7791 28.7292 25.5039 29.0445 25.1486C29.3597 24.7934 29.586 24.3682 29.7046 23.9083C30.028 22.667 30.4133 20.3972 30.4133 16.6329C30.4133 12.8687 30.028 10.5988 29.7047 9.35755ZM20.6907 17.0489L14.6907 21.0489C14.6154 21.0991 14.5279 21.1279 14.4375 21.1323C14.3471 21.1367 14.2572 21.1165 14.1774 21.0737C14.0976 21.031 14.0309 20.9675 13.9844 20.8898C13.9379 20.8122 13.9133 20.7234 13.9133 20.6329V12.6329C13.9133 12.5424 13.9379 12.4536 13.9844 12.3759C14.0309 12.2983 14.0976 12.2347 14.1774 12.192C14.2572 12.1493 14.3471 12.1291 14.4375 12.1334C14.5279 12.1378 14.6154 12.1667 14.6907 12.2169L20.6907 16.2169C20.7592 16.2625 20.8153 16.3244 20.8542 16.397C20.893 16.4695 20.9133 16.5506 20.9133 16.6329C20.9133 16.7152 20.893 16.7962 20.8542 16.8688C20.8153 16.9414 20.7592 17.0032 20.6907 17.0489Z" fill="#143151"/>
</svg>
